<svg width="344" height="190" viewBox="0 0 344 190" fill="none" xmlns="http://www.w3.org/2000/svg">
<g clip-path="url(#clip0_1058_1595)">
<path d="M339.959 175.087L239.597 33.5315L57.0467 5.82275L158.085 144.001L339.959 175.087Z" fill="#91A2F9" stroke="black" stroke-width="2" stroke-miterlimit="10"/>
<path d="M127.258 56.0927L104.421 91.9789C109.212 84.4585 119.25 81.0269 132.177 81.4832L155.014 45.5969C142.032 45.1406 131.994 48.554 127.258 56.0927Z" fill="#91A2F9"/>
<path d="M240.62 177.496L263.457 141.592C263.64 141.3 263.823 140.99 264.006 140.661C274.135 122.408 251.591 88.8943 213.651 65.8219C192.715 53.0445 171.451 46.1447 154.922 45.5789L132.085 81.4651C148.541 82.0492 169.878 88.9673 190.814 101.708C228.754 124.835 251.298 158.294 241.169 176.547L240.62 177.496Z" fill="#91A2F9"/>
<path d="M132.121 81.4833C118.664 81.0087 108.352 84.7324 103.799 92.91C93.6693 111.163 116.214 144.677 154.172 167.749C175.107 180.526 196.354 187.426 212.901 187.992C226.34 188.467 236.671 184.743 241.205 176.565C251.334 158.312 228.79 124.799 190.85 101.726C169.915 88.9855 148.65 82.0674 132.121 81.4833Z" fill="#91A2F9"/>
<path d="M152.468 165.968C115.001 141.752 93.9712 107.715 105.496 89.9436C117.021 72.1726 156.736 77.3974 194.203 101.613C231.67 125.829 252.7 159.867 241.175 177.638C229.651 195.409 189.935 190.184 152.468 165.968Z" stroke="#1D1D1B" stroke-width="2" stroke-miterlimit="10"/>
<path d="M125.631 54.3586C136.602 36.2147 175.931 40.8875 213.579 64.8178C251.226 88.748 272.893 122.864 261.959 141.026" stroke="#1D1D1B" stroke-width="2" stroke-miterlimit="10"/>
<path d="M241.498 151.832C223.854 153.657 198.567 146.174 174.029 130.567C150.26 115.453 132.835 96.2687 125.996 79.6033" stroke="#1D1D1B" stroke-width="2" stroke-miterlimit="10"/>
<path d="M125.631 54.3586L105.171 90.4457" stroke="#1D1D1B" stroke-width="2" stroke-miterlimit="10"/>
<path d="M261.959 141.026L241.499 177.113" stroke="#1D1D1B" stroke-width="2" stroke-miterlimit="10"/>
<path d="M161.267 20.5169C161.522 18.2312 161.212 15.918 160.364 13.7796C159.516 11.6412 158.156 9.74282 156.403 8.25058C154.472 6.69514 152.219 5.58575 149.807 5.00192C147.395 4.41809 144.883 4.37428 142.452 4.87369C131.793 6.69903 124.351 15.8258 118.683 24.2771C113.299 32.7837 107.464 40.9973 101.203 48.8827C95.1119 56.1971 88.1976 62.7874 80.5968 68.5234C72.041 75.0031 62.349 79.8317 52.0185 82.7611C51.4342 82.9233 50.8093 82.8471 50.2813 82.5493C49.7532 82.2515 49.3652 81.7564 49.2028 81.1731C49.0403 80.5897 49.1166 79.9658 49.4149 79.4386C49.7132 78.9115 50.2092 78.5242 50.7935 78.362C70.9062 72.7947 87.362 58.9038 100.271 42.8591C107.328 34.0244 112.649 24.0033 119.67 15.1869C126.216 6.95457 135.578 -0.365037 146.658 0.0365381C158.085 0.438114 167.447 10.0942 165.692 21.7216C165.253 24.6239 160.846 23.3827 161.285 20.5169H161.267Z" fill="black"/>
<path d="M31.0098 84.8238C31.0098 84.8238 20.2769 77.5224 10.8971 53.793" stroke="#1D1D1B" stroke-width="4" stroke-linecap="round" stroke-linejoin="round"/>
<path d="M31.0098 84.8236C31.0098 84.8236 10.1657 83.6919 3.93079 67.4646" stroke="#1D1D1B" stroke-width="4" stroke-linecap="round" stroke-linejoin="round"/>
<path d="M31.0098 84.8236C31.0098 84.8236 13.6214 90.902 1.75496 81.6658" stroke="#1D1D1B" stroke-width="4" stroke-linecap="round" stroke-linejoin="round"/>
<path d="M40.9934 94.1146C35.2577 94.1146 30.608 89.2684 30.608 83.2904C30.608 77.3123 35.2577 72.4661 40.9934 72.4661C46.7292 72.4661 51.3789 77.3123 51.3789 83.2904C51.3789 89.2684 46.7292 94.1146 40.9934 94.1146Z" fill="#91A2F9" stroke="black" stroke-width="1.5" stroke-miterlimit="10"/>
</g>
<defs>
<clipPath id="clip0_1058_1595">
<rect width="344" height="190" fill="white" transform="matrix(-1 0 0 1 344 0)"/>
</clipPath>
</defs>
</svg>
