<svg width="244" height="138" viewBox="0 0 244 138" fill="none" xmlns="http://www.w3.org/2000/svg">
<path d="M133.852 119.012L45.1406 41.0177L154.918 1L243.626 78.9879L133.852 119.012Z" fill="#91A2F9" stroke="black" stroke-width="2" stroke-linecap="round" stroke-linejoin="round"/>
<path d="M144.385 60.0066C144.385 60.0066 118.774 81.8186 84.4777 83.1627C47.9003 84.5974 28.8691 98.0285 28.8691 98.0285" stroke="black" stroke-width="4" stroke-linecap="round" stroke-linejoin="round"/>
<path d="M16.2347 110.496C18.841 114.466 24.1697 115.574 28.1366 112.969C32.1037 110.365 33.2068 105.034 30.6005 101.063C27.9942 97.0925 22.6656 95.985 18.6986 98.5897C14.7315 101.194 13.6285 106.525 16.2347 110.496Z" fill="#91A2F9" stroke="black" stroke-width="2" stroke-linecap="round" stroke-linejoin="round"/>
<path d="M1 128.991C11.466 124.647 17.6451 113.309 17.6451 113.309C17.6451 113.309 20.732 124.284 10.2033 135.317" stroke="black" stroke-width="2" stroke-linecap="round" stroke-linejoin="round"/>
<path d="M18.5137 114.636C18.5137 114.636 27.8004 122.501 20.8691 136.565" stroke="black" stroke-width="2" stroke-linecap="round" stroke-linejoin="round"/>
</svg>
