<svg width="176" height="162" viewBox="0 0 176 162" fill="none" xmlns="http://www.w3.org/2000/svg">
<path d="M1 98.6327L62.7325 1L175 33.0298L136.531 93.8542L135.261 92.9166C139.72 85.7844 141.593 78.1134 139.969 71.0442L134.821 49.766C130.938 32.8592 108.542 25.799 84.7916 34.0184C61.0409 42.2376 44.9574 62.5455 48.8406 79.4524L53.9825 100.729C55.9937 109.479 62.9691 115.59 72.5308 118.318L72.3376 119L1 98.6327Z" fill="#91A2F9"/>
<path d="M53.9171 88.8491C52.9799 92.547 52.9182 96.3864 53.7382 100L48.5797 79.0636C44.6841 62.4269 60.8348 42.4117 84.6461 34.3556C108.457 26.2997 130.93 33.2485 134.835 49.8517L140 70.7898C139.098 67.0453 137.279 63.6915 134.728 61.0734C125.905 51.7776 108.268 49.0184 89.8445 55.2671C71.1604 61.6022 57.2189 75.2423 53.9171 88.8491Z" fill="#91A2F9"/>
<path d="M54 88.9088C57.2807 75.3168 71.291 61.6649 89.9926 55.3572C108.491 49.1159 126.177 51.8749 135 61.1627L134.894 61.2784C131.492 74.8365 117.553 88.356 98.9236 94.6404C80.5142 100.87 62.8733 98.1382 54 88.9088Z" fill="#91A2F9"/>
<path d="M72 118.527L72.1957 117.858C81.2048 120.348 92.4861 119.959 104.079 116.082C118.064 111.405 129.432 102.707 135.713 93L137 93.9198L113.452 130L72 118.527Z" fill="#91A2F9"/>
<path d="M98.8904 94.6295C117.581 88.3198 131.582 74.7189 135.006 61.1161L135.112 61C137.68 63.6298 139.512 66.9985 140.42 70.7596C142.053 77.7736 140.163 85.3268 135.665 92.3777C129.392 102.183 118.053 110.946 104.112 115.63C92.5489 119.535 81.2967 119.928 72.311 117.419C62.6654 114.727 55.6202 108.686 53.5765 100.035C52.7509 96.4055 52.813 92.549 53.7566 88.8347C62.6578 98.1328 80.3701 100.877 98.8904 94.6295Z" fill="#91A2F9"/>
<path d="M157.169 144.213C156.359 145.058 155.352 145.636 154.276 145.876C153.2 146.116 152.102 146.006 151.122 145.559C150.141 145.113 149.323 144.351 148.768 143.37C148.214 142.388 147.949 141.231 148.008 140.044C148.067 138.858 148.447 137.696 149.099 136.704C149.751 135.713 150.647 134.937 151.672 134.475C152.697 134.012 153.807 133.884 154.86 134.106C155.913 134.329 156.863 134.892 157.589 135.724C158.074 136.277 158.446 136.935 158.686 137.661C158.927 138.387 159.031 139.167 158.992 139.955C158.953 140.744 158.773 141.526 158.459 142.257C158.146 142.987 157.707 143.652 157.169 144.213Z" fill="#91A2F9"/>
<path d="M157.175 144.209C157.983 143.364 158.56 142.29 158.829 141.125C159.098 139.959 159.048 138.754 158.687 137.662C158.327 136.569 157.668 135.638 156.798 134.986C155.928 134.335 154.884 133.991 153.797 134C152.712 134.009 151.633 134.369 150.696 135.036C149.761 135.702 149.01 136.644 148.54 137.744C148.071 138.843 147.901 140.05 148.056 141.212C148.208 142.374 148.678 143.439 149.404 144.272C149.887 144.826 150.471 145.263 151.122 145.56C151.774 145.856 152.481 146.006 153.202 146C153.924 145.994 154.646 145.833 155.327 145.526C156.01 145.218 156.636 144.771 157.175 144.209Z" stroke="black" stroke-width="2" stroke-linecap="round" stroke-linejoin="round"/>
<path d="M137 148.096C145.198 150.182 149.723 145.306 150 145C149.841 145.418 146.439 154.002 138.681 156" stroke="black" stroke-width="2" stroke-linecap="round" stroke-linejoin="round"/>
<path d="M149.976 145C149.976 145 150.638 156.147 145 161" stroke="black" stroke-width="2" stroke-linecap="round" stroke-linejoin="round"/>
<path d="M135 61C131.597 74.6638 117.655 88.2884 99.0214 94.6219C80.5713 100.89 62.9264 98.1365 54.0511 88.8355L54 88.7845" stroke="black" stroke-width="2" stroke-linecap="round" stroke-linejoin="round"/>
<path d="M140 70.7982L134.836 49.8659C130.94 33.2341 108.473 26.2887 84.6464 34.3744C60.8195 42.4601 44.6846 62.4377 48.5801 79.0696L53.7386 100" stroke="black" stroke-width="2" stroke-linecap="round" stroke-linejoin="round"/>
<path d="M53.7676 88.9635C57.0622 75.3513 71.132 61.6792 89.9129 55.3621C108.49 49.1117 126.25 51.8747 135.111 61.1763C137.68 63.7981 139.512 67.1566 140.42 70.9062C142.054 77.8989 140.163 85.429 135.664 92.4587C129.39 102.234 118.048 110.97 104.104 115.64C92.5391 119.534 81.2847 119.925 72.2969 117.424C62.6494 114.74 55.6027 108.718 53.5586 100.093C52.7486 96.4829 52.8206 92.6518 53.7676 88.9635Z" stroke="black" stroke-width="2" stroke-linecap="round" stroke-linejoin="round"/>
<path d="M143 84C143 84 172.32 93.0956 156.119 134" stroke="black" stroke-width="2" stroke-linecap="round" stroke-linejoin="round"/>
<path d="M72.3294 118.441L1 98.1846L62.7325 1L175 32.8828L136.521 93.462L112.768 130L72.3294 118.441Z" stroke="black" stroke-width="2" stroke-linecap="round" stroke-linejoin="round"/>
</svg>
