<svg width="344" height="190" viewBox="0 0 344 190" fill="none" xmlns="http://www.w3.org/2000/svg">
<g clip-path="url(#clip0_641_2332)">
<path d="M4.04102 175.087L104.403 33.5315L286.953 5.82275L185.915 144.001L4.04102 175.087Z" fill="#91A2F9" stroke="black" stroke-width="2" stroke-miterlimit="10"/>
<path d="M216.741 56.0927L239.578 91.9789C234.787 84.4585 224.749 81.0269 211.822 81.4832L188.985 45.5969C201.967 45.1406 212.005 48.554 216.741 56.0927Z" fill="#91A2F9"/>
<path d="M103.379 177.496L80.5418 141.592C80.359 141.3 80.1761 140.99 79.9932 140.661C69.8638 122.408 92.4083 88.8943 130.348 65.8219C151.284 53.0445 172.548 46.1447 189.077 45.5789L211.914 81.4651C195.458 82.0492 174.121 88.9673 153.185 101.708C115.245 124.835 92.7008 158.294 102.83 176.547L103.379 177.496Z" fill="#91A2F9"/>
<path d="M211.878 81.4833C225.335 81.0087 235.647 84.7324 240.2 92.91C250.33 111.163 227.785 144.677 189.827 167.749C168.892 180.526 147.645 187.426 131.098 187.992C117.659 188.467 107.329 184.743 102.794 176.565C92.6645 158.312 115.209 124.799 153.149 101.726C174.084 88.9855 195.349 82.0674 211.878 81.4833Z" fill="#91A2F9"/>
<path d="M191.532 165.968C228.999 141.752 250.029 107.715 238.504 89.9436C226.979 72.1726 187.264 77.3974 149.797 101.613C112.33 125.829 91.2997 159.867 102.825 177.638C114.349 195.409 154.065 190.184 191.532 165.968Z" stroke="#1D1D1B" stroke-width="2" stroke-miterlimit="10"/>
<path d="M218.369 54.3586C207.398 36.2147 168.069 40.8875 130.421 64.8178C92.7742 88.748 71.1073 122.864 82.0413 141.026" stroke="#1D1D1B" stroke-width="2" stroke-miterlimit="10"/>
<path d="M102.502 151.832C120.146 153.657 145.433 146.174 169.971 130.567C193.74 115.453 211.165 96.2687 218.004 79.6033" stroke="#1D1D1B" stroke-width="2" stroke-miterlimit="10"/>
<path d="M218.369 54.3586L238.829 90.4457" stroke="#1D1D1B" stroke-width="2" stroke-miterlimit="10"/>
<path d="M82.041 141.026L102.501 177.113" stroke="#1D1D1B" stroke-width="2" stroke-miterlimit="10"/>
<path d="M182.733 20.5169C182.478 18.2312 182.788 15.918 183.636 13.7796C184.484 11.6412 185.844 9.74282 187.597 8.25058C189.528 6.69514 191.781 5.58575 194.193 5.00192C196.605 4.41809 199.117 4.37428 201.548 4.87369C212.207 6.69903 219.649 15.8258 225.317 24.2771C230.701 32.7837 236.536 40.9973 242.797 48.8827C248.888 56.1971 255.802 62.7874 263.403 68.5234C271.959 75.0031 281.651 79.8317 291.981 82.7611C292.566 82.9233 293.191 82.8471 293.719 82.5493C294.247 82.2515 294.635 81.7564 294.797 81.1731C294.96 80.5897 294.883 79.9658 294.585 79.4386C294.287 78.9115 293.791 78.5242 293.207 78.362C273.094 72.7947 256.638 58.9039 243.729 42.8591C236.672 34.0244 231.351 24.0033 224.33 15.1869C217.784 6.95457 208.422 -0.365037 197.342 0.0365381C185.915 0.438114 176.553 10.0942 178.308 21.7216C178.747 24.6239 183.154 23.3827 182.715 20.5169H182.733Z" fill="black"/>
<path d="M312.99 84.8238C312.99 84.8238 323.723 77.5224 333.103 53.793" stroke="#1D1D1B" stroke-width="4" stroke-linecap="round" stroke-linejoin="round"/>
<path d="M312.99 84.8236C312.99 84.8236 333.834 83.6919 340.069 67.4646" stroke="#1D1D1B" stroke-width="4" stroke-linecap="round" stroke-linejoin="round"/>
<path d="M312.99 84.8236C312.99 84.8236 330.379 90.902 342.245 81.6658" stroke="#1D1D1B" stroke-width="4" stroke-linecap="round" stroke-linejoin="round"/>
<path d="M303.007 94.1146C308.742 94.1146 313.392 89.2684 313.392 83.2904C313.392 77.3123 308.742 72.4661 303.007 72.4661C297.271 72.4661 292.621 77.3123 292.621 83.2904C292.621 89.2684 297.271 94.1146 303.007 94.1146Z" fill="#91A2F9" stroke="black" stroke-width="1.5" stroke-miterlimit="10"/>
</g>
<defs>
<clipPath id="clip0_641_2332">
<rect width="344" height="190" fill="white"/>
</clipPath>
</defs>
</svg>
