<svg width="282" height="266" viewBox="0 0 282 266" fill="none" xmlns="http://www.w3.org/2000/svg">
<g clip-path="url(#clip0_798_1130)">
<path d="M245.647 37.3567C248.196 36.8934 250.825 37.1971 253.202 38.2293C255.578 39.2614 257.597 40.9758 259.001 43.1557C260.405 45.3355 261.132 47.8829 261.091 50.4759C261.049 53.0689 260.241 55.5911 258.768 57.7236C257.294 59.8561 255.223 61.5031 252.814 62.4566C250.405 63.41 247.768 63.627 245.235 63.0802C242.703 62.5333 240.389 61.2472 238.586 59.3843C236.783 57.5214 235.572 55.1654 235.106 52.6141C234.795 50.9188 234.821 49.1788 235.183 47.4938C235.544 45.8088 236.234 44.2119 237.214 42.7946C238.193 41.3772 239.442 40.1674 240.889 39.2343C242.336 38.3011 243.953 37.6631 245.647 37.3567Z" fill="#91A2F9"/>
<path d="M280.302 262.92L180.726 245.702L180.631 245.617L199.755 224.475C209.471 212.864 190.514 180.961 157.419 153.205C124.324 125.448 89.6221 112.35 79.9057 123.961L53.7311 152.768L1.99609 79.5857L171.381 108.889L280.302 262.92Z" fill="#91A2F9"/>
<path d="M53.7312 152.767L79.8476 123.891C89.564 112.28 124.266 125.378 157.361 153.135C190.456 180.891 209.413 212.794 199.696 224.405L167.615 259.881L167.524 259.818C176.19 247.768 157.311 216.423 124.742 189.108C91.6469 161.352 56.9359 148.267 47.2305 159.875L53.7312 152.767Z" fill="#91A2F9"/>
<path d="M124.742 189.166C157.311 216.481 176.19 247.826 167.524 259.876L167.079 260.447C157.363 272.058 122.663 258.971 89.568 231.215C56.4731 203.458 37.5141 171.544 47.2305 159.933C56.9469 148.323 91.6448 161.398 124.742 189.166Z" fill="#91A2F9"/>
<path d="M54.2081 153.506L53.6881 152.777L1.95312 79.5955L171.371 108.893L280.242 262.898L180.666 245.681" stroke="black" stroke-width="2" stroke-linecap="round" stroke-linejoin="round"/>
<path d="M260.833 47.9605C261.295 50.5108 260.99 53.1405 259.959 55.5169C258.927 57.8934 257.215 59.91 255.038 61.3117C252.861 62.7133 250.317 63.4371 247.729 63.3914C245.141 63.3458 242.624 62.5328 240.496 61.0552C238.369 59.5777 236.727 57.502 235.777 55.0905C234.828 52.6791 234.614 50.0403 235.163 47.5078C235.711 44.9753 236.998 42.6628 238.859 40.8628C240.721 39.0628 243.074 37.8561 245.622 37.3954C249.038 36.7775 252.559 37.5435 255.412 39.5249C258.265 41.5062 260.215 44.5406 260.833 47.9605Z" stroke="black" stroke-width="2" stroke-linecap="round" stroke-linejoin="round"/>
<path d="M192 139L192.408 138.831C197.16 136.87 241.803 117.021 249 64" stroke="black" stroke-width="4" stroke-linecap="round" stroke-linejoin="round"/>
<path d="M249.512 36.8836C249.655 36.2862 254.284 16.7486 240.984 2.36279" stroke="black" stroke-width="4" stroke-linecap="round" stroke-linejoin="round"/>
<path d="M227.176 13.3784C247.259 21.5878 249.547 36.8908 249.547 36.8908" stroke="black" stroke-width="4" stroke-linecap="round" stroke-linejoin="round"/>
<path d="M249.504 36.8957C249.972 36.3882 265.868 18.5502 259.725 1.69263" stroke="black" stroke-width="4" stroke-linecap="round" stroke-linejoin="round"/>
<path d="M79.7695 124.066C89.486 112.456 124.188 125.554 157.283 153.31C190.378 181.067 209.335 212.97 199.618 224.58" stroke="black" stroke-width="2" stroke-linecap="round" stroke-linejoin="round"/>
<path d="M167.524 259.865L167.079 260.437C157.363 272.048 122.663 258.961 89.5681 231.204C56.4732 203.447 37.5141 171.533 47.2305 159.923C56.9469 148.312 91.6468 161.399 124.742 189.156C157.303 216.426 176.191 247.816 167.524 259.865Z" stroke="black" stroke-width="2" stroke-linecap="round" stroke-linejoin="round"/>
<path d="M47.2305 159.923L79.8063 123.9" stroke="black" stroke-width="2" stroke-linecap="round" stroke-linejoin="round"/>
<path d="M167.613 259.926L200.189 223.903" stroke="black" stroke-width="2" stroke-linecap="round" stroke-linejoin="round"/>
<path d="M66.209 156.586C74.3531 175.131 106.101 218.733 167.941 244.78" stroke="black" stroke-width="2"/>
</g>
<defs>
<clipPath id="clip0_798_1130">
<rect width="282" height="266" fill="white"/>
</clipPath>
</defs>
</svg>
